<svg width="20" height="20" viewBox="0 0 20 20" fill="none" xmlns="http://www.w3.org/2000/svg">
<path d="M9.99935 6.45817C9.48158 6.45817 9.06185 6.8779 9.06185 7.39567C9.06185 7.74085 8.78203 8.02067 8.43685 8.02067C8.09167 8.02067 7.81185 7.74085 7.81185 7.39567C7.81185 6.18755 8.79123 5.20817 9.99935 5.20817C11.2075 5.20817 12.1868 6.18755 12.1868 7.39567C12.1868 8.19845 11.7541 8.89948 11.1121 9.27931C10.9481 9.37631 10.8128 9.48223 10.7246 9.58614C10.639 9.68703 10.6243 9.75284 10.6243 9.7915V10.8332C10.6243 11.1783 10.3445 11.4582 9.99935 11.4582C9.65417 11.4582 9.37435 11.1783 9.37435 10.8332V9.7915C9.37435 9.36993 9.55891 9.02787 9.77151 8.77735C9.98154 8.52985 10.2434 8.34084 10.4756 8.20349C10.753 8.03933 10.9368 7.73863 10.9368 7.39567C10.9368 6.8779 10.5171 6.45817 9.99935 6.45817Z" fill="#1DA1F2"/>
<path d="M9.99935 14.1665C10.4596 14.1665 10.8327 13.7934 10.8327 13.3332C10.8327 12.8729 10.4596 12.4998 9.99935 12.4998C9.53911 12.4998 9.16602 12.8729 9.16602 13.3332C9.16602 13.7934 9.53911 14.1665 9.99935 14.1665Z" fill="#1DA1F2"/>
<path fill-rule="evenodd" clip-rule="evenodd" d="M9.95153 1.0415H10.0472C11.9708 1.04149 13.4784 1.04149 14.6546 1.19963C15.8585 1.36149 16.8086 1.69928 17.5542 2.44495C18.2999 3.19063 18.6377 4.14065 18.7996 5.34459C18.9577 6.52083 18.9577 8.02836 18.9577 9.95203V10.0476C18.9577 11.9713 18.9577 13.4788 18.7996 14.6551C18.6377 15.859 18.2999 16.809 17.5542 17.5547C16.8086 18.3004 15.8585 18.6382 14.6546 18.8C13.4784 18.9582 11.9708 18.9582 10.0472 18.9582H9.95154C8.02788 18.9582 6.52034 18.9582 5.3441 18.8C4.14016 18.6382 3.19014 18.3004 2.44446 17.5547C1.69879 16.809 1.361 15.859 1.19914 14.6551C1.041 13.4788 1.04101 11.9713 1.04102 10.0477V9.95202C1.04101 8.02837 1.041 6.52083 1.19914 5.34459C1.361 4.14065 1.69879 3.19063 2.44446 2.44495C3.19014 1.69928 4.14016 1.36149 5.3441 1.19963C6.52034 1.04149 8.02788 1.04149 9.95153 1.0415ZM5.51066 2.43848C4.44533 2.58171 3.80306 2.85412 3.32835 3.32883C2.85363 3.80355 2.58122 4.44582 2.43799 5.51115C2.29234 6.59447 2.29102 8.01798 2.29102 9.99984C2.29102 11.9817 2.29234 13.4052 2.43799 14.4885C2.58122 15.5539 2.85363 16.1961 3.32835 16.6708C3.80306 17.1456 4.44533 17.418 5.51066 17.5612C6.59398 17.7068 8.01749 17.7082 9.99935 17.7082C11.9812 17.7082 13.4047 17.7068 14.488 17.5612C15.5534 17.418 16.1956 17.1456 16.6704 16.6708C17.1451 16.1961 17.4175 15.5539 17.5607 14.4885C17.7064 13.4052 17.7077 11.9817 17.7077 9.99984C17.7077 8.01798 17.7064 6.59447 17.5607 5.51115C17.4175 4.44582 17.1451 3.80355 16.6704 3.32883C16.1956 2.85412 15.5534 2.58171 14.488 2.43848C13.4047 2.29283 11.9812 2.2915 9.99935 2.2915C8.01749 2.2915 6.59398 2.29283 5.51066 2.43848Z" fill="#1DA1F2"/>
</svg>
